<?xml version="1.0" standalone="no"?>
<!DOCTYPE svg PUBLIC "-//W3C//DTD SVG 20010904//EN"
 "http://www.w3.org/TR/2001/REC-SVG-20010904/DTD/svg10.dtd">
<svg version="1.0" xmlns="http://www.w3.org/2000/svg"
 width="700.000000pt" height="700.000000pt" viewBox="0 0 700.000000 700.000000"
 preserveAspectRatio="xMidYMid meet">
<metadata>
Created by potrace 1.11, written by Peter Selinger 2001-2013
</metadata>
<g transform="translate(0.000000,700.000000) scale(0.100000,-0.100000)"
fill="#000000" stroke="none">
<path d="M1262 5881 c-189 -47 -343 -171 -425 -342 -25 -52 -50 -119 -56 -148
-16 -75 -16 -3708 0 -3784 6 -28 31 -94 56 -145 77 -157 215 -276 388 -334
l70 -23 2178 -3 c2427 -3 2249 -8 2402 68 173 86 298 242 341 426 12 52 14
350 14 1901 1 1307 -3 1855 -10 1894 -7 29 -32 96 -57 147 -77 157 -215 276
-388 334 l-70 23 -2185 2 c-2078 2 -2189 1 -2258 -16z m4459 -342 c72 -34 133
-98 161 -169 19 -48 22 -80 26 -267 l4 -213 -2412 0 -2412 0 4 213 c6 250 14
280 92 363 36 39 69 62 111 79 l60 25 2155 -3 2155 -2 56 -26z m187 -2422 l-3
-1442 -33 -67 c-37 -76 -82 -120 -162 -157 l-55 -26 -2120 -3 c-1383 -1 -2138
1 -2173 8 -143 26 -239 124 -262 266 -6 36 -10 609 -10 1462 l0 1402 2410 0
2410 0 -2 -1443z"/>
<path d="M1365 5365 c-54 -19 -102 -76 -111 -130 -8 -56 21 -123 67 -156 46
-32 144 -34 185 -3 44 32 66 68 71 117 14 118 -101 211 -212 172z"/>
<path d="M1864 5371 c-76 -19 -130 -98 -121 -178 19 -176 271 -194 317 -23 32
118 -77 229 -196 201z"/>
<path d="M2340 5368 c-108 -30 -153 -165 -85 -254 83 -108 247 -76 286 56 35
118 -81 233 -201 198z"/>
<path d="M2952 3810 c-97 -26 -169 -68 -245 -144 -104 -104 -157 -230 -157
-371 0 -131 51 -262 137 -353 41 -44 799 -642 813 -642 14 0 781 607 817 647
144 159 174 395 76 591 -34 69 -150 187 -220 225 -66 35 -190 67 -262 67 -133
-1 -273 -54 -362 -137 l-49 -46 -43 40 c-132 122 -332 170 -505 123z"/>
</g>
</svg>
