<?xml version="1.0"?>
<svg xmlns="http://www.w3.org/2000/svg">
  <svg id="logo" xmlns="http://www.w3.org/2000/svg" xmlns:xlink="http://www.w3.org/1999/xlink" width="176" height="156" viewBox="0 0 176 156">
    <defs>
      <clipPath id="clip_0">
        <rect y="-12" width="176" height="176" clip-rule="evenodd"/>
      </clipPath>
    </defs>
    <g clip-path="url(#clip_0)">
      <path stroke="none" transform="matrix(4 0 0 4 0 20)" d="M0 0L4 0L4 4L0 4L0 0Z"/>
    </g>
    <defs>
      <clipPath id="clip_1">
        <rect y="-12" width="176" height="176" clip-rule="evenodd"/>
      </clipPath>
    </defs>
    <g clip-path="url(#clip_1)">
      <path stroke="none" transform="matrix(4 0 0 4 20 0)" d="M0 0L4 0L4 4L0 4L0 0Z"/>
    </g>
    <defs>
      <clipPath id="clip_2">
        <rect y="-12" width="176" height="176" clip-rule="evenodd"/>
      </clipPath>
    </defs>
    <g clip-path="url(#clip_2)">
      <path stroke="none" transform="matrix(4 0 0 4 0 40)" d="M0 0L4 0L4 4L0 4L0 0Z"/>
    </g>
    <defs>
      <clipPath id="clip_3">
        <rect y="-12" width="176" height="176" clip-rule="evenodd"/>
      </clipPath>
    </defs>
    <g clip-path="url(#clip_3)">
      <path stroke="none" transform="matrix(4 0 0 4 20 20)" d="M0 0L4 0L4 4L0 4L0 0Z"/>
    </g>
    <defs>
      <clipPath id="clip_4">
        <rect y="-12" width="176" height="176" clip-rule="evenodd"/>
      </clipPath>
    </defs>
    <g clip-path="url(#clip_4)">
      <path stroke="none" transform="matrix(4 0 0 4 40 0)" d="M0 0L4 0L4 4L0 4L0 0Z"/>
    </g>
    <defs>
      <clipPath id="clip_5">
        <rect y="-12" width="176" height="176" clip-rule="evenodd"/>
      </clipPath>
    </defs>
    <g clip-path="url(#clip_5)">
      <path stroke="none" transform="matrix(4 0 0 4 0 60)" d="M0 0L4 0L4 4L0 4L0 0Z"/>
    </g>
    <defs>
      <clipPath id="clip_6">
        <rect y="-12" width="176" height="176" clip-rule="evenodd"/>
      </clipPath>
    </defs>
    <g clip-path="url(#clip_6)">
      <path stroke="none" transform="matrix(4 0 0 4 20 40)" d="M0 0L4 0L4 4L0 4L0 0Z"/>
    </g>
    <defs>
      <clipPath id="clip_7">
        <rect y="-12" width="176" height="176" clip-rule="evenodd"/>
      </clipPath>
    </defs>
    <g clip-path="url(#clip_7)">
      <path stroke="none" transform="matrix(4 0 0 4 40 20)" d="M0 0L4 0L4 4L0 4L0 0Z"/>
    </g>
    <defs>
      <clipPath id="clip_8">
        <rect y="-12" width="176" height="176" clip-rule="evenodd"/>
      </clipPath>
    </defs>
    <g clip-path="url(#clip_8)">
      <path stroke="none" transform="matrix(4 0 0 4 60 0)" d="M0 0L4 0L4 4L0 4L0 0Z"/>
    </g>
    <defs>
      <clipPath id="clip_9">
        <rect y="-12" width="176" height="176" clip-rule="evenodd"/>
      </clipPath>
    </defs>
    <g clip-path="url(#clip_9)">
      <path stroke="none" transform="matrix(4 0 0 4 20 60)" d="M0 0L4 0L4 4L0 4L0 0Z"/>
    </g>
    <defs>
      <clipPath id="clip_10">
        <rect y="-12" width="176" height="176" clip-rule="evenodd"/>
      </clipPath>
    </defs>
    <g clip-path="url(#clip_10)">
      <path stroke="none" transform="matrix(4 0 0 4 40 40)" d="M0 0L4 0L4 4L0 4L0 0Z"/>
    </g>
    <defs>
      <clipPath id="clip_11">
        <rect y="-12" width="176" height="176" clip-rule="evenodd"/>
      </clipPath>
    </defs>
    <g clip-path="url(#clip_11)">
      <path stroke="none" transform="matrix(4 0 0 4 60 20)" d="M0 0L4 0L4 4L0 4L0 0Z"/>
    </g>
    <defs>
      <clipPath id="clip_12">
        <rect y="-12" width="176" height="176" clip-rule="evenodd"/>
      </clipPath>
    </defs>
    <g clip-path="url(#clip_12)">
      <path stroke="none" transform="matrix(4 0 0 4 20 80)" d="M0 0L4 0L4 4L0 4L0 0Z"/>
    </g>
    <defs>
      <clipPath id="clip_13">
        <rect y="-12" width="176" height="176" clip-rule="evenodd"/>
      </clipPath>
    </defs>
    <g clip-path="url(#clip_13)">
      <path stroke="none" transform="matrix(4 0 0 4 40 60)" d="M0 0L4 0L4 4L0 4L0 0Z"/>
    </g>
    <defs>
      <clipPath id="clip_14">
        <rect y="-12" width="176" height="176" clip-rule="evenodd"/>
      </clipPath>
    </defs>
    <g clip-path="url(#clip_14)">
      <path stroke="none" transform="matrix(4 0 0 4 60 40)" d="M0 0L4 0L4 4L0 4L0 0Z"/>
    </g>
    <defs>
      <clipPath id="clip_15">
        <rect y="-12" width="176" height="176" clip-rule="evenodd"/>
      </clipPath>
    </defs>
    <g clip-path="url(#clip_15)">
      <path stroke="none" transform="matrix(4 0 0 4 80 20)" d="M0 0L4 0L4 4L0 4L0 0Z"/>
    </g>
    <defs>
      <clipPath id="clip_16">
        <rect y="-12" width="176" height="176" clip-rule="evenodd"/>
      </clipPath>
    </defs>
    <g clip-path="url(#clip_16)">
      <path stroke="none" transform="matrix(4 0 0 4 100 0)" d="M0 0L4 0L4 4L0 4L0 0Z"/>
    </g>
    <defs>
      <clipPath id="clip_17">
        <rect y="-12" width="176" height="176" clip-rule="evenodd"/>
      </clipPath>
    </defs>
    <g clip-path="url(#clip_17)">
      <path stroke="none" transform="matrix(4 0 0 4 40 100)" d="M0 0L4 0L4 4L0 4L0 0Z"/>
    </g>
    <defs>
      <clipPath id="clip_18">
        <rect y="-12" width="176" height="176" clip-rule="evenodd"/>
      </clipPath>
    </defs>
    <g clip-path="url(#clip_18)">
      <path stroke="none" transform="matrix(4 0 0 4 40 80)" d="M0 0L4 0L4 4L0 4L0 0Z"/>
    </g>
    <defs>
      <clipPath id="clip_19">
        <rect y="-12" width="176" height="176" clip-rule="evenodd"/>
      </clipPath>
    </defs>
    <g clip-path="url(#clip_19)">
      <path stroke="none" transform="matrix(4 0 0 4 60 60)" d="M0 0L4 0L4 4L0 4L0 0Z"/>
    </g>
    <defs>
      <clipPath id="clip_20">
        <rect y="-12" width="176" height="176" clip-rule="evenodd"/>
      </clipPath>
    </defs>
    <g clip-path="url(#clip_20)">
      <path stroke="none" transform="matrix(4 0 0 4 80 40)" d="M0 0L4 0L4 4L0 4L0 0Z"/>
    </g>
    <defs>
      <clipPath id="clip_21">
        <rect y="-12" width="176" height="176" clip-rule="evenodd"/>
      </clipPath>
    </defs>
    <g clip-path="url(#clip_21)">
      <path stroke="none" transform="matrix(4 0 0 4 100 20)" d="M0 0L4 0L4 4L0 4L0 0Z"/>
    </g>
    <defs>
      <clipPath id="clip_22">
        <rect y="-12" width="176" height="176" clip-rule="evenodd"/>
      </clipPath>
    </defs>
    <g clip-path="url(#clip_22)">
      <path stroke="none" transform="matrix(4 0 0 4 120 0)" d="M0 0L4 0L4 4L0 4L0 0Z"/>
    </g>
    <defs>
      <clipPath id="clip_23">
        <rect y="-12" width="176" height="176" clip-rule="evenodd"/>
      </clipPath>
    </defs>
    <g clip-path="url(#clip_23)">
      <path stroke="none" transform="matrix(4 0 0 4 60 80)" d="M0 0L4 0L4 4L0 4L0 0Z"/>
    </g>
    <defs>
      <clipPath id="clip_24">
        <rect y="-12" width="176" height="176" clip-rule="evenodd"/>
      </clipPath>
    </defs>
    <g clip-path="url(#clip_24)">
      <path stroke="none" transform="matrix(4 0 0 4 80 60)" d="M0 0L4 0L4 4L0 4L0 0Z"/>
    </g>
    <defs>
      <clipPath id="clip_25">
        <rect y="-12" width="176" height="176" clip-rule="evenodd"/>
      </clipPath>
    </defs>
    <g clip-path="url(#clip_25)">
      <path stroke="none" transform="matrix(4 0 0 4 100 40)" d="M0 0L4 0L4 4L0 4L0 0Z"/>
    </g>
    <defs>
      <clipPath id="clip_26">
        <rect y="-12" width="176" height="176" clip-rule="evenodd"/>
      </clipPath>
    </defs>
    <g clip-path="url(#clip_26)">
      <path stroke="none" transform="matrix(4 0 0 4 120 20)" d="M0 0L4 0L4 4L0 4L0 0Z"/>
    </g>
    <defs>
      <clipPath id="clip_27">
        <rect y="-12" width="176" height="176" clip-rule="evenodd"/>
      </clipPath>
    </defs>
    <g clip-path="url(#clip_27)">
      <path stroke="none" transform="matrix(4 0 0 4 140 0)" d="M0 0L4 0L4 4L0 4L0 0Z"/>
    </g>
    <defs>
      <clipPath id="clip_28">
        <rect y="-12" width="176" height="176" clip-rule="evenodd"/>
      </clipPath>
    </defs>
    <g clip-path="url(#clip_28)">
      <path stroke="none" transform="matrix(4 0 0 4 60 100)" d="M0 0L4 0L4 4L0 4L0 0Z"/>
    </g>
    <defs>
      <clipPath id="clip_29">
        <rect y="-12" width="176" height="176" clip-rule="evenodd"/>
      </clipPath>
    </defs>
    <g clip-path="url(#clip_29)">
      <path stroke="none" transform="matrix(4 0 0 4 80 80)" d="M0 0L4 0L4 4L0 4L0 0Z"/>
    </g>
    <defs>
      <clipPath id="clip_30">
        <rect y="-12" width="176" height="176" clip-rule="evenodd"/>
      </clipPath>
    </defs>
    <g clip-path="url(#clip_30)">
      <path stroke="none" transform="matrix(4 0 0 4 100 60)" d="M0 0L4 0L4 4L0 4L0 0Z"/>
    </g>
    <defs>
      <clipPath id="clip_31">
        <rect y="-12" width="176" height="176" clip-rule="evenodd"/>
      </clipPath>
    </defs>
    <g clip-path="url(#clip_31)">
      <path stroke="none" transform="matrix(4 0 0 4 120 40)" d="M0 0L4 0L4 4L0 4L0 0Z"/>
    </g>
    <defs>
      <clipPath id="clip_32">
        <rect y="-12" width="176" height="176" clip-rule="evenodd"/>
      </clipPath>
    </defs>
    <g clip-path="url(#clip_32)">
      <path stroke="none" transform="matrix(4 0 0 4 140 20)" d="M0 0L4 0L4 4L0 4L0 0Z"/>
    </g>
    <defs>
      <clipPath id="clip_33">
        <rect y="-12" width="176" height="176" clip-rule="evenodd"/>
      </clipPath>
    </defs>
    <g clip-path="url(#clip_33)">
      <path stroke="none" transform="matrix(4 0 0 4 60 120)" d="M0 0L4 0L4 4L0 4L0 0Z"/>
    </g>
    <defs>
      <clipPath id="clip_34">
        <rect y="-12" width="176" height="176" clip-rule="evenodd"/>
      </clipPath>
    </defs>
    <g clip-path="url(#clip_34)">
      <path stroke="none" transform="matrix(4 0 0 4 80 100)" d="M0 0L4 0L4 4L0 4L0 0Z"/>
    </g>
    <defs>
      <clipPath id="clip_35">
        <rect y="-12" width="176" height="176" clip-rule="evenodd"/>
      </clipPath>
    </defs>
    <g clip-path="url(#clip_35)">
      <path stroke="none" transform="matrix(4 0 0 4 100 80)" d="M0 0L4 0L4 4L0 4L0 0Z"/>
    </g>
    <defs>
      <clipPath id="clip_36">
        <rect y="-12" width="176" height="176" clip-rule="evenodd"/>
      </clipPath>
    </defs>
    <g clip-path="url(#clip_36)">
      <path stroke="none" transform="matrix(4 0 0 4 120 60)" d="M0 0L4 0L4 4L0 4L0 0Z"/>
    </g>
    <defs>
      <clipPath id="clip_37">
        <rect y="-12" width="176" height="176" clip-rule="evenodd"/>
      </clipPath>
    </defs>
    <g clip-path="url(#clip_37)">
      <path stroke="none" transform="matrix(4 0 0 4 140 40)" d="M0 0L4 0L4 4L0 4L0 0Z"/>
    </g>
    <defs>
      <clipPath id="clip_38">
        <rect y="-12" width="176" height="176" clip-rule="evenodd"/>
      </clipPath>
    </defs>
    <g clip-path="url(#clip_38)">
      <path stroke="none" transform="matrix(4 0 0 4 160 20)" d="M0 0L4 0L4 4L0 4L0 0Z"/>
    </g>
    <defs>
      <clipPath id="clip_39">
        <rect y="-12" width="176" height="176" clip-rule="evenodd"/>
      </clipPath>
    </defs>
    <g clip-path="url(#clip_39)">
      <path stroke="none" transform="matrix(4 0 0 4 80 120)" d="M0 0L4 0L4 4L0 4L0 0Z"/>
    </g>
    <defs>
      <clipPath id="clip_40">
        <rect y="-12" width="176" height="176" clip-rule="evenodd"/>
      </clipPath>
    </defs>
    <g clip-path="url(#clip_40)">
      <path stroke="none" transform="matrix(4 0 0 4 100 100)" d="M0 0L4 0L4 4L0 4L0 0Z"/>
    </g>
    <defs>
      <clipPath id="clip_41">
        <rect y="-12" width="176" height="176" clip-rule="evenodd"/>
      </clipPath>
    </defs>
    <g clip-path="url(#clip_41)">
      <path stroke="none" transform="matrix(4 0 0 4 120 80)" d="M0 0L4 0L4 4L0 4L0 0Z"/>
    </g>
    <defs>
      <clipPath id="clip_42">
        <rect y="-12" width="176" height="176" clip-rule="evenodd"/>
      </clipPath>
    </defs>
    <g clip-path="url(#clip_42)">
      <path stroke="none" transform="matrix(4 0 0 4 140 60)" d="M0 0L4 0L4 4L0 4L0 0Z"/>
    </g>
    <defs>
      <clipPath id="clip_43">
        <rect y="-12" width="176" height="176" clip-rule="evenodd"/>
      </clipPath>
    </defs>
    <g clip-path="url(#clip_43)">
      <path stroke="none" transform="matrix(4 0 0 4 160 40)" d="M0 0L4 0L4 4L0 4L0 0Z"/>
    </g>
    <defs>
      <clipPath id="clip_44">
        <rect y="-12" width="176" height="176" clip-rule="evenodd"/>
      </clipPath>
    </defs>
    <g clip-path="url(#clip_44)">
      <path stroke="none" transform="matrix(4 0 0 4 80 140)" d="M0 0L4 0L4 4L0 4L0 0Z"/>
    </g>
    <defs>
      <clipPath id="clip_45">
        <rect y="-12" width="176" height="176" clip-rule="evenodd"/>
      </clipPath>
    </defs>
    <g clip-path="url(#clip_45)">
      <path stroke="none" transform="matrix(4 0 0 4 100 120)" d="M0 0L4 0L4 4L0 4L0 0Z"/>
    </g>
    <defs>
      <clipPath id="clip_46">
        <rect y="-12" width="176" height="176" clip-rule="evenodd"/>
      </clipPath>
    </defs>
    <g clip-path="url(#clip_46)">
      <path stroke="none" transform="matrix(4 0 0 4 120 100)" d="M0 0L4 0L4 4L0 4L0 0Z"/>
    </g>
    <defs>
      <clipPath id="clip_47">
        <rect y="-12" width="176" height="176" clip-rule="evenodd"/>
      </clipPath>
    </defs>
    <g clip-path="url(#clip_47)">
      <path stroke="none" transform="matrix(4 0 0 4 140 80)" d="M0 0L4 0L4 4L0 4L0 0Z"/>
    </g>
    <defs>
      <clipPath id="clip_48">
        <rect y="-12" width="176" height="176" clip-rule="evenodd"/>
      </clipPath>
    </defs>
    <g clip-path="url(#clip_48)">
      <path stroke="none" transform="matrix(4 0 0 4 160 60)" d="M0 0L4 0L4 4L0 4L0 0Z"/>
    </g>

  </svg>
  <svg id="logo-color" xmlns="http://www.w3.org/2000/svg" xmlns:xlink="http://www.w3.org/1999/xlink" width="176" height="156" viewBox="0 0 176 156">
    <defs>
      <clipPath id="clip_0">
        <rect y="-12" width="176" height="176" clip-rule="evenodd"/>
      </clipPath>
    </defs>
    <g clip-path="url(#clip_0)">
      <path fill="rgb(102,187,106)" stroke="none" transform="matrix(4 0 0 4 0 20)" d="M0 0L4 0L4 4L0 4L0 0Z"/>
    </g>
    <defs>
      <clipPath id="clip_1">
        <rect y="-12" width="176" height="176" clip-rule="evenodd"/>
      </clipPath>
    </defs>
    <g clip-path="url(#clip_1)">
      <path fill="rgb(102,187,106)" stroke="none" transform="matrix(4 0 0 4 20 0)" d="M0 0L4 0L4 4L0 4L0 0Z"/>
    </g>
    <defs>
      <clipPath id="clip_2">
        <rect y="-12" width="176" height="176" clip-rule="evenodd"/>
      </clipPath>
    </defs>
    <g clip-path="url(#clip_2)">
      <path fill="rgb(102,187,106)" stroke="none" transform="matrix(4 0 0 4 0 40)" d="M0 0L4 0L4 4L0 4L0 0Z"/>
    </g>
    <defs>
      <clipPath id="clip_3">
        <rect y="-12" width="176" height="176" clip-rule="evenodd"/>
      </clipPath>
    </defs>
    <g clip-path="url(#clip_3)">
      <path fill="rgb(102,187,106)" stroke="none" transform="matrix(4 0 0 4 20 20)" d="M0 0L4 0L4 4L0 4L0 0Z"/>
    </g>
    <defs>
      <clipPath id="clip_4">
        <rect y="-12" width="176" height="176" clip-rule="evenodd"/>
      </clipPath>
    </defs>
    <g clip-path="url(#clip_4)">
      <path fill="rgb(102,187,106)" stroke="none" transform="matrix(4 0 0 4 40 0)" d="M0 0L4 0L4 4L0 4L0 0Z"/>
    </g>
    <defs>
      <clipPath id="clip_5">
        <rect y="-12" width="176" height="176" clip-rule="evenodd"/>
      </clipPath>
    </defs>
    <g clip-path="url(#clip_5)">
      <path fill="rgb(165,214,167)" stroke="none" transform="matrix(4 0 0 4 0 60)" d="M0 0L4 0L4 4L0 4L0 0Z"/>
    </g>
    <defs>
      <clipPath id="clip_6">
        <rect y="-12" width="176" height="176" clip-rule="evenodd"/>
      </clipPath>
    </defs>
    <g clip-path="url(#clip_6)">
      <path fill="rgb(165,214,167)" stroke="none" transform="matrix(4 0 0 4 20 40)" d="M0 0L4 0L4 4L0 4L0 0Z"/>
    </g>
    <defs>
      <clipPath id="clip_7">
        <rect y="-12" width="176" height="176" clip-rule="evenodd"/>
      </clipPath>
    </defs>
    <g clip-path="url(#clip_7)">
      <path fill="rgb(165,214,167)" stroke="none" transform="matrix(4 0 0 4 40 20)" d="M0 0L4 0L4 4L0 4L0 0Z"/>
    </g>
    <defs>
      <clipPath id="clip_8">
        <rect y="-12" width="176" height="176" clip-rule="evenodd"/>
      </clipPath>
    </defs>
    <g clip-path="url(#clip_8)">
      <path fill="rgb(165,214,167)" stroke="none" transform="matrix(4 0 0 4 60 0)" d="M0 0L4 0L4 4L0 4L0 0Z"/>
    </g>
    <defs>
      <clipPath id="clip_9">
        <rect y="-12" width="176" height="176" clip-rule="evenodd"/>
      </clipPath>
    </defs>
    <g clip-path="url(#clip_9)">
      <path fill="rgb(165,214,167)" stroke="none" transform="matrix(4 0 0 4 20 60)" d="M0 0L4 0L4 4L0 4L0 0Z"/>
    </g>
    <defs>
      <clipPath id="clip_10">
        <rect y="-12" width="176" height="176" clip-rule="evenodd"/>
      </clipPath>
    </defs>
    <g clip-path="url(#clip_10)">
      <path fill="rgb(165,214,167)" stroke="none" transform="matrix(4 0 0 4 40 40)" d="M0 0L4 0L4 4L0 4L0 0Z"/>
    </g>
    <defs>
      <clipPath id="clip_11">
        <rect y="-12" width="176" height="176" clip-rule="evenodd"/>
      </clipPath>
    </defs>
    <g clip-path="url(#clip_11)">
      <path fill="rgb(165,214,167)" stroke="none" transform="matrix(4 0 0 4 60 20)" d="M0 0L4 0L4 4L0 4L0 0Z"/>
    </g>
    <defs>
      <clipPath id="clip_12">
        <rect y="-12" width="176" height="176" clip-rule="evenodd"/>
      </clipPath>
    </defs>
    <g clip-path="url(#clip_12)">
      <path fill="rgb(100,181,246)" stroke="none" transform="matrix(4 0 0 4 20 80)" d="M0 0L4 0L4 4L0 4L0 0Z"/>
    </g>
    <defs>
      <clipPath id="clip_13">
        <rect y="-12" width="176" height="176" clip-rule="evenodd"/>
      </clipPath>
    </defs>
    <g clip-path="url(#clip_13)">
      <path fill="rgb(100,181,246)" stroke="none" transform="matrix(4 0 0 4 40 60)" d="M0 0L4 0L4 4L0 4L0 0Z"/>
    </g>
    <defs>
      <clipPath id="clip_14">
        <rect y="-12" width="176" height="176" clip-rule="evenodd"/>
      </clipPath>
    </defs>
    <g clip-path="url(#clip_14)">
      <path fill="rgb(100,181,246)" stroke="none" transform="matrix(4 0 0 4 60 40)" d="M0 0L4 0L4 4L0 4L0 0Z"/>
    </g>
    <defs>
      <clipPath id="clip_15">
        <rect y="-12" width="176" height="176" clip-rule="evenodd"/>
      </clipPath>
    </defs>
    <g clip-path="url(#clip_15)">
      <path fill="rgb(100,181,246)" stroke="none" transform="matrix(4 0 0 4 80 20)" d="M0 0L4 0L4 4L0 4L0 0Z"/>
    </g>
    <defs>
      <clipPath id="clip_16">
        <rect y="-12" width="176" height="176" clip-rule="evenodd"/>
      </clipPath>
    </defs>
    <g clip-path="url(#clip_16)">
      <path fill="rgb(100,181,246)" stroke="none" transform="matrix(4 0 0 4 100 0)" d="M0 0L4 0L4 4L0 4L0 0Z"/>
    </g>
    <defs>
      <clipPath id="clip_17">
        <rect y="-12" width="176" height="176" clip-rule="evenodd"/>
      </clipPath>
    </defs>
    <g clip-path="url(#clip_17)">
      <path fill="rgb(100,181,246)" stroke="none" transform="matrix(4 0 0 4 40 100)" d="M0 0L4 0L4 4L0 4L0 0Z"/>
    </g>
    <defs>
      <clipPath id="clip_18">
        <rect y="-12" width="176" height="176" clip-rule="evenodd"/>
      </clipPath>
    </defs>
    <g clip-path="url(#clip_18)">
      <path fill="rgb(100,181,246)" stroke="none" transform="matrix(4 0 0 4 40 80)" d="M0 0L4 0L4 4L0 4L0 0Z"/>
    </g>
    <defs>
      <clipPath id="clip_19">
        <rect y="-12" width="176" height="176" clip-rule="evenodd"/>
      </clipPath>
    </defs>
    <g clip-path="url(#clip_19)">
      <path fill="rgb(100,181,246)" stroke="none" transform="matrix(4 0 0 4 60 60)" d="M0 0L4 0L4 4L0 4L0 0Z"/>
    </g>
    <defs>
      <clipPath id="clip_20">
        <rect y="-12" width="176" height="176" clip-rule="evenodd"/>
      </clipPath>
    </defs>
    <g clip-path="url(#clip_20)">
      <path fill="rgb(100,181,246)" stroke="none" transform="matrix(4 0 0 4 80 40)" d="M0 0L4 0L4 4L0 4L0 0Z"/>
    </g>
    <defs>
      <clipPath id="clip_21">
        <rect y="-12" width="176" height="176" clip-rule="evenodd"/>
      </clipPath>
    </defs>
    <g clip-path="url(#clip_21)">
      <path fill="rgb(100,181,246)" stroke="none" transform="matrix(4 0 0 4 100 20)" d="M0 0L4 0L4 4L0 4L0 0Z"/>
    </g>
    <defs>
      <clipPath id="clip_22">
        <rect y="-12" width="176" height="176" clip-rule="evenodd"/>
      </clipPath>
    </defs>
    <g clip-path="url(#clip_22)">
      <path fill="rgb(100,181,246)" stroke="none" transform="matrix(4 0 0 4 120 0)" d="M0 0L4 0L4 4L0 4L0 0Z"/>
    </g>
    <defs>
      <clipPath id="clip_23">
        <rect y="-12" width="176" height="176" clip-rule="evenodd"/>
      </clipPath>
    </defs>
    <g clip-path="url(#clip_23)">
      <path fill="rgb(100,181,246)" stroke="none" transform="matrix(4 0 0 4 60 80)" d="M0 0L4 0L4 4L0 4L0 0Z"/>
    </g>
    <defs>
      <clipPath id="clip_24">
        <rect y="-12" width="176" height="176" clip-rule="evenodd"/>
      </clipPath>
    </defs>
    <g clip-path="url(#clip_24)">
      <path fill="rgb(100,181,246)" stroke="none" transform="matrix(4 0 0 4 80 60)" d="M0 0L4 0L4 4L0 4L0 0Z"/>
    </g>
    <defs>
      <clipPath id="clip_25">
        <rect y="-12" width="176" height="176" clip-rule="evenodd"/>
      </clipPath>
    </defs>
    <g clip-path="url(#clip_25)">
      <path fill="rgb(100,181,246)" stroke="none" transform="matrix(4 0 0 4 100 40)" d="M0 0L4 0L4 4L0 4L0 0Z"/>
    </g>
    <defs>
      <clipPath id="clip_26">
        <rect y="-12" width="176" height="176" clip-rule="evenodd"/>
      </clipPath>
    </defs>
    <g clip-path="url(#clip_26)">
      <path fill="rgb(100,181,246)" stroke="none" transform="matrix(4 0 0 4 120 20)" d="M0 0L4 0L4 4L0 4L0 0Z"/>
    </g>
    <defs>
      <clipPath id="clip_27">
        <rect y="-12" width="176" height="176" clip-rule="evenodd"/>
      </clipPath>
    </defs>
    <g clip-path="url(#clip_27)">
      <path fill="rgb(100,181,246)" stroke="none" transform="matrix(4 0 0 4 140 0)" d="M0 0L4 0L4 4L0 4L0 0Z"/>
    </g>
    <defs>
      <clipPath id="clip_28">
        <rect y="-12" width="176" height="176" clip-rule="evenodd"/>
      </clipPath>
    </defs>
    <g clip-path="url(#clip_28)">
      <path fill="rgb(239,154,154)" stroke="none" transform="matrix(4 0 0 4 60 100)" d="M0 0L4 0L4 4L0 4L0 0Z"/>
    </g>
    <defs>
      <clipPath id="clip_29">
        <rect y="-12" width="176" height="176" clip-rule="evenodd"/>
      </clipPath>
    </defs>
    <g clip-path="url(#clip_29)">
      <path fill="rgb(239,154,154)" stroke="none" transform="matrix(4 0 0 4 80 80)" d="M0 0L4 0L4 4L0 4L0 0Z"/>
    </g>
    <defs>
      <clipPath id="clip_30">
        <rect y="-12" width="176" height="176" clip-rule="evenodd"/>
      </clipPath>
    </defs>
    <g clip-path="url(#clip_30)">
      <path fill="rgb(239,154,154)" stroke="none" transform="matrix(4 0 0 4 100 60)" d="M0 0L4 0L4 4L0 4L0 0Z"/>
    </g>
    <defs>
      <clipPath id="clip_31">
        <rect y="-12" width="176" height="176" clip-rule="evenodd"/>
      </clipPath>
    </defs>
    <g clip-path="url(#clip_31)">
      <path fill="rgb(239,154,154)" stroke="none" transform="matrix(4 0 0 4 120 40)" d="M0 0L4 0L4 4L0 4L0 0Z"/>
    </g>
    <defs>
      <clipPath id="clip_32">
        <rect y="-12" width="176" height="176" clip-rule="evenodd"/>
      </clipPath>
    </defs>
    <g clip-path="url(#clip_32)">
      <path fill="rgb(239,154,154)" stroke="none" transform="matrix(4 0 0 4 140 20)" d="M0 0L4 0L4 4L0 4L0 0Z"/>
    </g>
    <defs>
      <clipPath id="clip_33">
        <rect y="-12" width="176" height="176" clip-rule="evenodd"/>
      </clipPath>
    </defs>
    <g clip-path="url(#clip_33)">
      <path fill="rgb(239,154,154)" stroke="none" transform="matrix(4 0 0 4 60 120)" d="M0 0L4 0L4 4L0 4L0 0Z"/>
    </g>
    <defs>
      <clipPath id="clip_34">
        <rect y="-12" width="176" height="176" clip-rule="evenodd"/>
      </clipPath>
    </defs>
    <g clip-path="url(#clip_34)">
      <path fill="rgb(239,154,154)" stroke="none" transform="matrix(4 0 0 4 80 100)" d="M0 0L4 0L4 4L0 4L0 0Z"/>
    </g>
    <defs>
      <clipPath id="clip_35">
        <rect y="-12" width="176" height="176" clip-rule="evenodd"/>
      </clipPath>
    </defs>
    <g clip-path="url(#clip_35)">
      <path fill="rgb(239,154,154)" stroke="none" transform="matrix(4 0 0 4 100 80)" d="M0 0L4 0L4 4L0 4L0 0Z"/>
    </g>
    <defs>
      <clipPath id="clip_36">
        <rect y="-12" width="176" height="176" clip-rule="evenodd"/>
      </clipPath>
    </defs>
    <g clip-path="url(#clip_36)">
      <path fill="rgb(239,154,154)" stroke="none" transform="matrix(4 0 0 4 120 60)" d="M0 0L4 0L4 4L0 4L0 0Z"/>
    </g>
    <defs>
      <clipPath id="clip_37">
        <rect y="-12" width="176" height="176" clip-rule="evenodd"/>
      </clipPath>
    </defs>
    <g clip-path="url(#clip_37)">
      <path fill="rgb(239,154,154)" stroke="none" transform="matrix(4 0 0 4 140 40)" d="M0 0L4 0L4 4L0 4L0 0Z"/>
    </g>
    <defs>
      <clipPath id="clip_38">
        <rect y="-12" width="176" height="176" clip-rule="evenodd"/>
      </clipPath>
    </defs>
    <g clip-path="url(#clip_38)">
      <path fill="rgb(239,154,154)" stroke="none" transform="matrix(4 0 0 4 160 20)" d="M0 0L4 0L4 4L0 4L0 0Z"/>
    </g>
    <defs>
      <clipPath id="clip_39">
        <rect y="-12" width="176" height="176" clip-rule="evenodd"/>
      </clipPath>
    </defs>
    <g clip-path="url(#clip_39)">
      <path fill="rgb(239,83,80)" stroke="none" transform="matrix(4 0 0 4 80 120)" d="M0 0L4 0L4 4L0 4L0 0Z"/>
    </g>
    <defs>
      <clipPath id="clip_40">
        <rect y="-12" width="176" height="176" clip-rule="evenodd"/>
      </clipPath>
    </defs>
    <g clip-path="url(#clip_40)">
      <path fill="rgb(239,83,80)" stroke="none" transform="matrix(4 0 0 4 100 100)" d="M0 0L4 0L4 4L0 4L0 0Z"/>
    </g>
    <defs>
      <clipPath id="clip_41">
        <rect y="-12" width="176" height="176" clip-rule="evenodd"/>
      </clipPath>
    </defs>
    <g clip-path="url(#clip_41)">
      <path fill="rgb(239,83,80)" stroke="none" transform="matrix(4 0 0 4 120 80)" d="M0 0L4 0L4 4L0 4L0 0Z"/>
    </g>
    <defs>
      <clipPath id="clip_42">
        <rect y="-12" width="176" height="176" clip-rule="evenodd"/>
      </clipPath>
    </defs>
    <g clip-path="url(#clip_42)">
      <path fill="rgb(239,83,80)" stroke="none" transform="matrix(4 0 0 4 140 60)" d="M0 0L4 0L4 4L0 4L0 0Z"/>
    </g>
    <defs>
      <clipPath id="clip_43">
        <rect y="-12" width="176" height="176" clip-rule="evenodd"/>
      </clipPath>
    </defs>
    <g clip-path="url(#clip_43)">
      <path fill="rgb(239,83,80)" stroke="none" transform="matrix(4 0 0 4 160 40)" d="M0 0L4 0L4 4L0 4L0 0Z"/>
    </g>
    <defs>
      <clipPath id="clip_44">
        <rect y="-12" width="176" height="176" clip-rule="evenodd"/>
      </clipPath>
    </defs>
    <g clip-path="url(#clip_44)">
      <path fill="rgb(239,83,80)" stroke="none" transform="matrix(4 0 0 4 80 140)" d="M0 0L4 0L4 4L0 4L0 0Z"/>
    </g>
    <defs>
      <clipPath id="clip_45">
        <rect y="-12" width="176" height="176" clip-rule="evenodd"/>
      </clipPath>
    </defs>
    <g clip-path="url(#clip_45)">
      <path fill="rgb(239,83,80)" stroke="none" transform="matrix(4 0 0 4 100 120)" d="M0 0L4 0L4 4L0 4L0 0Z"/>
    </g>
    <defs>
      <clipPath id="clip_46">
        <rect y="-12" width="176" height="176" clip-rule="evenodd"/>
      </clipPath>
    </defs>
    <g clip-path="url(#clip_46)">
      <path fill="rgb(239,83,80)" stroke="none" transform="matrix(4 0 0 4 120 100)" d="M0 0L4 0L4 4L0 4L0 0Z"/>
    </g>
    <defs>
      <clipPath id="clip_47">
        <rect y="-12" width="176" height="176" clip-rule="evenodd"/>
      </clipPath>
    </defs>
    <g clip-path="url(#clip_47)">
      <path fill="rgb(239,83,80)" stroke="none" transform="matrix(4 0 0 4 140 80)" d="M0 0L4 0L4 4L0 4L0 0Z"/>
    </g>
    <defs>
      <clipPath id="clip_48">
        <rect y="-12" width="176" height="176" clip-rule="evenodd"/>
      </clipPath>
    </defs>
    <g clip-path="url(#clip_48)">
      <path fill="rgb(239,83,80)" stroke="none" transform="matrix(4 0 0 4 160 60)" d="M0 0L4 0L4 4L0 4L0 0Z"/>
    </g>

  </svg>
  <svg id="help" xmlns="http://www.w3.org/2000/svg" viewBox="0 0 24 24" width="48px" height="48px">
    <path style="line-height:normal;text-indent:0;text-align:start;text-decoration-line:none;text-decoration-style:solid;text-decoration-color:#000;text-transform:none;block-progression:tb;isolation:auto;mix-blend-mode:normal" d="M 12 2 C 6.4889971 2 2 6.4889971 2 12 C 2 17.511003 6.4889971 22 12 22 C 17.511003 22 22 17.511003 22 12 C 22 6.4889971 17.511003 2 12 2 z M 12 4 C 16.430123 4 20 7.5698774 20 12 C 20 16.430123 16.430123 20 12 20 C 7.5698774 20 4 16.430123 4 12 C 4 7.5698774 7.5698774 4 12 4 z M 12 6 C 9.79 6 8 7.79 8 10 L 10 10 C 10 8.9 10.9 8 12 8 C 13.1 8 14 8.9 14 10 C 14 12 11 12.367 11 15 L 13 15 C 13 13.349 16 12.5 16 10 C 16 7.79 14.21 6 12 6 z M 11 16 L 11 18 L 13 18 L 13 16 L 11 16 z" font-weight="400" font-family="sans-serif" white-space="normal" overflow="visible"/>
  </svg>
  <svg id="add" xmlns="http://www.w3.org/2000/svg" viewBox="0 0 24 24" width="48px" height="48px">
    <path d="M 11 3 L 11 11 L 3 11 L 3 13 L 11 13 L 11 21 L 13 21 L 13 13 L 21 13 L 21 11 L 13 11 L 13 3 L 11 3 z"/>
  </svg>
  <svg id="left" xmlns="http://www.w3.org/2000/svg" viewBox="0 0 24 24" width="48px" height="48px">
    <path d="M 10 4.9296875 L 2.9296875 12 L 10 19.070312 L 11.5 17.570312 L 6.9296875 13 L 21 13 L 21 11 L 6.9296875 11 L 11.5 6.4296875 L 10 4.9296875 z"/>
  </svg>
  <svg id="right" xmlns="http://www.w3.org/2000/svg" viewBox="0 0 24 24" width="48px" height="48px">
    <path d="M 14 4.9296875 L 12.5 6.4296875 L 17.070312 11 L 3 11 L 3 13 L 17.070312 13 L 12.5 17.570312 L 14 19.070312 L 21.070312 12 L 14 4.9296875 z"/>
  </svg>
  <svg id="lol" xmlns="http://www.w3.org/2000/svg" viewBox="0 0 24 24" width="48px" height="48px">
    <path d="M 12 2 C 6.477 2 2 6.477 2 12 C 2 17.523 6.477 22 12 22 C 17.523 22 22 17.523 22 12 C 22 6.477 17.523 2 12 2 z M 12 4 C 16.418 4 20 7.582 20 12 C 20 16.418 16.418 20 12 20 C 7.582 20 4 16.418 4 12 C 4 7.582 7.582 4 12 4 z M 9 7 C 7.895 7 7 7.895 7 9 L 11 9 C 11 7.895 10.105 7 9 7 z M 15 7 C 13.895 7 13 7.895 13 9 L 17 9 C 17 7.895 16.105 7 15 7 z M 6 12 C 6 15.32 8.68 18 12 18 C 15.32 18 18 15.32 18 12 L 6 12 z"/>
  </svg>
  <svg id="happy" xmlns="http://www.w3.org/2000/svg" viewBox="0 0 24 24" width="48px" height="48px">
    <path d="M 12 2 C 6.477 2 2 6.477 2 12 C 2 17.523 6.477 22 12 22 C 17.523 22 22 17.523 22 12 C 22 6.477 17.523 2 12 2 z M 12 4 C 16.418 4 20 7.582 20 12 C 20 16.418 16.418 20 12 20 C 7.582 20 4 16.418 4 12 C 4 7.582 7.582 4 12 4 z M 8.5 8 A 1.5 1.5 0 0 0 7 9.5 A 1.5 1.5 0 0 0 8.5 11 A 1.5 1.5 0 0 0 10 9.5 A 1.5 1.5 0 0 0 8.5 8 z M 15.5 8 A 1.5 1.5 0 0 0 14 9.5 A 1.5 1.5 0 0 0 15.5 11 A 1.5 1.5 0 0 0 17 9.5 A 1.5 1.5 0 0 0 15.5 8 z M 6.890625 14 C 7.690625 16.04 9.67 17.5 12 17.5 C 14.33 17.5 16.309375 16.04 17.109375 14 L 6.890625 14 z"/>
  </svg>
  <svg id="neutral" xmlns="http://www.w3.org/2000/svg" viewBox="0 0 24 24" width="48px" height="48px">
    <path style="line-height:normal;text-indent:0;text-align:start;text-decoration-line:none;text-decoration-style:solid;text-decoration-color:#000;text-transform:none;block-progression:tb;isolation:auto;mix-blend-mode:normal" d="M 12 2 C 6.4889971 2 2 6.4889971 2 12 C 2 17.511003 6.4889971 22 12 22 C 17.511003 22 22 17.511003 22 12 C 22 6.4889971 17.511003 2 12 2 z M 12 4 C 16.430123 4 20 7.5698774 20 12 C 20 16.430123 16.430123 20 12 20 C 7.5698774 20 4 16.430123 4 12 C 4 7.5698774 7.5698774 4 12 4 z M 9 10 A 1 1 0 0 0 8 11 A 1 1 0 0 0 9 12 A 1 1 0 0 0 10 11 A 1 1 0 0 0 9 10 z M 15 10 A 1 1 0 0 0 14 11 A 1 1 0 0 0 15 12 A 1 1 0 0 0 16 11 A 1 1 0 0 0 15 10 z M 9 15 L 9 17 L 15 17 L 15 15 L 9 15 z" font-weight="400" font-family="sans-serif" white-space="normal" overflow="visible"/>
  </svg>
  <svg id="sad" xmlns="http://www.w3.org/2000/svg" viewBox="0 0 24 24" width="48px" height="48px">
    <path style="line-height:normal;text-indent:0;text-align:start;text-decoration-line:none;text-decoration-style:solid;text-decoration-color:#000;text-transform:none;block-progression:tb;isolation:auto;mix-blend-mode:normal" d="M 12 2 C 6.4889971 2 2 6.4889971 2 12 C 2 17.511003 6.4889971 22 12 22 C 17.511003 22 22 17.511003 22 12 C 22 6.4889971 17.511003 2 12 2 z M 12 4 C 16.430123 4 20 7.5698774 20 12 C 20 16.430123 16.430123 20 12 20 C 7.5698774 20 4 16.430123 4 12 C 4 7.5698774 7.5698774 4 12 4 z M 9 10 A 1 1 0 0 0 8 11 A 1 1 0 0 0 9 12 A 1 1 0 0 0 10 11 A 1 1 0 0 0 9 10 z M 15 10 A 1 1 0 0 0 14 11 A 1 1 0 0 0 15 12 A 1 1 0 0 0 16 11 A 1 1 0 0 0 15 10 z M 12 14.015625 C 10.487797 14.015625 8.9711552 14.469701 7.6914062 15.382812 L 8.8535156 17.009766 C 9.7797668 16.348877 10.888203 16.015625 12 16.015625 C 13.112949 16.015625 14.221508 16.349188 15.146484 17.009766 L 16.308594 15.382812 C 15.02957 14.469391 13.513051 14.015625 12 14.015625 z" font-weight="400" font-family="sans-serif" white-space="normal" overflow="visible"/>
  </svg>
  <svg id="crying" xmlns="http://www.w3.org/2000/svg" viewBox="0 0 24 24" width="48px" height="48px">
    <path d="M 12 2 C 6.486 2 2 6.486 2 12 C 2 17.514 6.486 22 12 22 C 16.157 22 19.728375 19.448078 21.234375 15.830078 C 20.889375 15.930078 20.533062 16 20.164062 16 C 19.772063 16 19.39525 15.9245 19.03125 15.8125 C 17.67425 18.3055 15.032 20 12 20 C 7.589 20 4 16.411 4 12 C 4 7.589 7.589 4 12 4 C 14.984 4 17.587891 5.6442656 18.962891 8.0722656 C 19.771891 8.1562656 20.629766 8.3090781 21.384766 8.5800781 C 19.982766 4.7480781 16.312 2 12 2 z M 9 8 C 7.879 8 7 8.879 7 10 L 11 10 C 11 8.879 10.121 8 9 8 z M 15 8 C 13.879 8 13 8.879 13 10 L 17 10 C 17 8.879 16.121 8 15 8 z M 18 10 C 18 10 18.149234 12.744891 18.865234 13.462891 C 19.582234 14.179891 20.745891 14.179891 21.462891 13.462891 C 22.179891 12.745891 22.179891 11.582234 21.462891 10.865234 C 20.745891 10.148234 18 10 18 10 z M 12 12 C 9.72 12 7.783 13.251 7 15 L 17 15 C 16.217 13.251 14.28 12 12 12 z"/>
  </svg>
  <svg id="download" xmlns="http://www.w3.org/2000/svg" viewBox="0 0 24 24" width="48px" height="48px">
    <path style="line-height:normal;text-indent:0;text-align:start;text-decoration-line:none;text-decoration-style:solid;text-decoration-color:#000;text-transform:none;block-progression:tb;isolation:auto;mix-blend-mode:normal" d="M 11 2 L 11 4 L 13 4 L 13 2 L 11 2 z M 11 6 L 11 14.585938 L 7.7070312 11.292969 L 6.2929688 12.707031 L 12 18.414062 L 17.707031 12.707031 L 16.292969 11.292969 L 13 14.585938 L 13 6 L 11 6 z M 2 17 L 2 20 C 2 21.093063 2.9069372 22 4 22 L 20 22 C 21.093063 22 22 21.093063 22 20 L 22 17 L 20 17 L 20 20 L 4 20 L 4 17 L 2 17 z" font-weight="400" font-family="sans-serif" white-space="normal" overflow="visible"/>
  </svg>
</svg>
