<?xml version="1.0"?>
<svg xmlns="http://www.w3.org/2000/svg">
  <svg id="help" xmlns="http://www.w3.org/2000/svg" viewBox="0 0 24 24" width="48px" height="48px">
    <path style="line-height:normal;text-indent:0;text-align:start;text-decoration-line:none;text-decoration-style:solid;text-decoration-color:#000;text-transform:none;block-progression:tb;isolation:auto;mix-blend-mode:normal" d="M 12 2 C 6.4889971 2 2 6.4889971 2 12 C 2 17.511003 6.4889971 22 12 22 C 17.511003 22 22 17.511003 22 12 C 22 6.4889971 17.511003 2 12 2 z M 12 4 C 16.430123 4 20 7.5698774 20 12 C 20 16.430123 16.430123 20 12 20 C 7.5698774 20 4 16.430123 4 12 C 4 7.5698774 7.5698774 4 12 4 z M 12 6 C 9.79 6 8 7.79 8 10 L 10 10 C 10 8.9 10.9 8 12 8 C 13.1 8 14 8.9 14 10 C 14 12 11 12.367 11 15 L 13 15 C 13 13.349 16 12.5 16 10 C 16 7.79 14.21 6 12 6 z M 11 16 L 11 18 L 13 18 L 13 16 L 11 16 z" font-weight="400" font-family="sans-serif" white-space="normal" overflow="visible"/>
  </svg>
  <svg id="add" xmlns="http://www.w3.org/2000/svg" viewBox="0 0 24 24" width="48px" height="48px">
    <path d="M 11 3 L 11 11 L 3 11 L 3 13 L 11 13 L 11 21 L 13 21 L 13 13 L 21 13 L 21 11 L 13 11 L 13 3 L 11 3 z"/>
  </svg>
  <svg id="left" xmlns="http://www.w3.org/2000/svg" viewBox="0 0 24 24" width="48px" height="48px">
    <path d="M 10 4.9296875 L 2.9296875 12 L 10 19.070312 L 11.5 17.570312 L 6.9296875 13 L 21 13 L 21 11 L 6.9296875 11 L 11.5 6.4296875 L 10 4.9296875 z"/>
  </svg>
  <svg id="right" xmlns="http://www.w3.org/2000/svg" viewBox="0 0 24 24" width="48px" height="48px">
    <path d="M 14 4.9296875 L 12.5 6.4296875 L 17.070312 11 L 3 11 L 3 13 L 17.070312 13 L 12.5 17.570312 L 14 19.070312 L 21.070312 12 L 14 4.9296875 z"/>
  </svg>
  <svg id="lol" xmlns="http://www.w3.org/2000/svg" viewBox="0 0 24 24" width="48px" height="48px">
    <path d="M 12 2 C 6.477 2 2 6.477 2 12 C 2 17.523 6.477 22 12 22 C 17.523 22 22 17.523 22 12 C 22 6.477 17.523 2 12 2 z M 12 4 C 16.418 4 20 7.582 20 12 C 20 16.418 16.418 20 12 20 C 7.582 20 4 16.418 4 12 C 4 7.582 7.582 4 12 4 z M 9 7 C 7.895 7 7 7.895 7 9 L 11 9 C 11 7.895 10.105 7 9 7 z M 15 7 C 13.895 7 13 7.895 13 9 L 17 9 C 17 7.895 16.105 7 15 7 z M 6 12 C 6 15.32 8.68 18 12 18 C 15.32 18 18 15.32 18 12 L 6 12 z"/>
  </svg>
  <svg id="happy" xmlns="http://www.w3.org/2000/svg" viewBox="0 0 24 24" width="48px" height="48px">
    <path d="M 12 2 C 6.477 2 2 6.477 2 12 C 2 17.523 6.477 22 12 22 C 17.523 22 22 17.523 22 12 C 22 6.477 17.523 2 12 2 z M 12 4 C 16.418 4 20 7.582 20 12 C 20 16.418 16.418 20 12 20 C 7.582 20 4 16.418 4 12 C 4 7.582 7.582 4 12 4 z M 8.5 8 A 1.5 1.5 0 0 0 7 9.5 A 1.5 1.5 0 0 0 8.5 11 A 1.5 1.5 0 0 0 10 9.5 A 1.5 1.5 0 0 0 8.5 8 z M 15.5 8 A 1.5 1.5 0 0 0 14 9.5 A 1.5 1.5 0 0 0 15.5 11 A 1.5 1.5 0 0 0 17 9.5 A 1.5 1.5 0 0 0 15.5 8 z M 6.890625 14 C 7.690625 16.04 9.67 17.5 12 17.5 C 14.33 17.5 16.309375 16.04 17.109375 14 L 6.890625 14 z"/>
  </svg>
  <svg id="neutral" xmlns="http://www.w3.org/2000/svg" viewBox="0 0 24 24" width="48px" height="48px">
    <path style="line-height:normal;text-indent:0;text-align:start;text-decoration-line:none;text-decoration-style:solid;text-decoration-color:#000;text-transform:none;block-progression:tb;isolation:auto;mix-blend-mode:normal" d="M 12 2 C 6.4889971 2 2 6.4889971 2 12 C 2 17.511003 6.4889971 22 12 22 C 17.511003 22 22 17.511003 22 12 C 22 6.4889971 17.511003 2 12 2 z M 12 4 C 16.430123 4 20 7.5698774 20 12 C 20 16.430123 16.430123 20 12 20 C 7.5698774 20 4 16.430123 4 12 C 4 7.5698774 7.5698774 4 12 4 z M 9 10 A 1 1 0 0 0 8 11 A 1 1 0 0 0 9 12 A 1 1 0 0 0 10 11 A 1 1 0 0 0 9 10 z M 15 10 A 1 1 0 0 0 14 11 A 1 1 0 0 0 15 12 A 1 1 0 0 0 16 11 A 1 1 0 0 0 15 10 z M 9 15 L 9 17 L 15 17 L 15 15 L 9 15 z" font-weight="400" font-family="sans-serif" white-space="normal" overflow="visible"/>
  </svg>
  <svg id="sad" xmlns="http://www.w3.org/2000/svg" viewBox="0 0 24 24" width="48px" height="48px">
    <path style="line-height:normal;text-indent:0;text-align:start;text-decoration-line:none;text-decoration-style:solid;text-decoration-color:#000;text-transform:none;block-progression:tb;isolation:auto;mix-blend-mode:normal" d="M 12 2 C 6.4889971 2 2 6.4889971 2 12 C 2 17.511003 6.4889971 22 12 22 C 17.511003 22 22 17.511003 22 12 C 22 6.4889971 17.511003 2 12 2 z M 12 4 C 16.430123 4 20 7.5698774 20 12 C 20 16.430123 16.430123 20 12 20 C 7.5698774 20 4 16.430123 4 12 C 4 7.5698774 7.5698774 4 12 4 z M 9 10 A 1 1 0 0 0 8 11 A 1 1 0 0 0 9 12 A 1 1 0 0 0 10 11 A 1 1 0 0 0 9 10 z M 15 10 A 1 1 0 0 0 14 11 A 1 1 0 0 0 15 12 A 1 1 0 0 0 16 11 A 1 1 0 0 0 15 10 z M 12 14.015625 C 10.487797 14.015625 8.9711552 14.469701 7.6914062 15.382812 L 8.8535156 17.009766 C 9.7797668 16.348877 10.888203 16.015625 12 16.015625 C 13.112949 16.015625 14.221508 16.349188 15.146484 17.009766 L 16.308594 15.382812 C 15.02957 14.469391 13.513051 14.015625 12 14.015625 z" font-weight="400" font-family="sans-serif" white-space="normal" overflow="visible"/>
  </svg>
  <svg id="crying" xmlns="http://www.w3.org/2000/svg" viewBox="0 0 24 24" width="48px" height="48px">
    <path d="M 12 2 C 6.486 2 2 6.486 2 12 C 2 17.514 6.486 22 12 22 C 16.157 22 19.728375 19.448078 21.234375 15.830078 C 20.889375 15.930078 20.533062 16 20.164062 16 C 19.772063 16 19.39525 15.9245 19.03125 15.8125 C 17.67425 18.3055 15.032 20 12 20 C 7.589 20 4 16.411 4 12 C 4 7.589 7.589 4 12 4 C 14.984 4 17.587891 5.6442656 18.962891 8.0722656 C 19.771891 8.1562656 20.629766 8.3090781 21.384766 8.5800781 C 19.982766 4.7480781 16.312 2 12 2 z M 9 8 C 7.879 8 7 8.879 7 10 L 11 10 C 11 8.879 10.121 8 9 8 z M 15 8 C 13.879 8 13 8.879 13 10 L 17 10 C 17 8.879 16.121 8 15 8 z M 18 10 C 18 10 18.149234 12.744891 18.865234 13.462891 C 19.582234 14.179891 20.745891 14.179891 21.462891 13.462891 C 22.179891 12.745891 22.179891 11.582234 21.462891 10.865234 C 20.745891 10.148234 18 10 18 10 z M 12 12 C 9.72 12 7.783 13.251 7 15 L 17 15 C 16.217 13.251 14.28 12 12 12 z"/>
  </svg>
</svg>
